<svg xmlns="http://www.w3.org/2000/svg" xmlns:xlink="http://www.w3.org/1999/xlink" viewBox="0 0 1467.57 735.16">
    <defs>
        <linearGradient id="GradientFill_1" x1="618.98" y1="437.52" x2="449.9" y2="476.56" gradientUnits="userSpaceOnUse">
            <stop offset="0" stop-color="#60b0e2" />
            <stop offset="1" stop-color="#916eb0" />
        </linearGradient>
        <linearGradient id="GradientFill_1-2" x1="795.38" y1="598.75" x2="871.52" y2="400.4" xlink:href="#GradientFill_1" />
    </defs>
    <title>404</title>
    <g id="Layer_2" data-name="Layer 2">
        <g id="Layer_1-2" data-name="Layer 1">
            <path d="M608.91,240.64H598.19a13.31,13.31,0,0,0-13.31,13.3V275.5a13.3,13.3,0,0,1-13.3,13.3h-65.3A13.31,13.31,0,0,1,493,275.5V253.94a13.3,13.3,0,0,0-13.3-13.3H360.59a13.31,13.31,0,0,1-13.31-13.3V184.58a13.36,13.36,0,0,1,2.36-7.56L462.52,13.6a13.28,13.28,0,0,1,10.94-5.74h65.33a13.3,13.3,0,0,1,11.08,20.66l-78.47,118a13.3,13.3,0,1,0,24.38,7.37V137.55a13.3,13.3,0,0,1,13.31-13.3h62.49a13.29,13.29,0,0,1,13.3,13.3v16.34a13.31,13.31,0,0,0,13.31,13.3h10.72a13.31,13.31,0,0,1,13.3,13.3v46.85A13.31,13.31,0,0,1,608.91,240.64Z" style="fill:#f0f0f0;fill-rule:evenodd" />
            <path d="M696.66,277.76q-28.71-17.46-45-50.57t-16.25-78.86q0-45.77,16.25-78.87t45-50.57q28.68-17.46,66-17.46t66,17.46q28.69,17.46,44.95,50.57t16.26,78.87q0,45.75-16.26,78.86T828.7,277.76q-28.69,17.46-66,17.46t-66-17.46Zm98.12-129.43h0q0-71-32.1-71t-32.11,71q0,71,32.11,71T794.78,148.33Z" style="fill:#f0f0f0;fill-rule:evenodd" />
            <path d="M1172.39,240.64h-10.71a13.31,13.31,0,0,0-13.31,13.3V275.5a13.3,13.3,0,0,1-13.3,13.3h-65.3a13.31,13.31,0,0,1-13.31-13.3V253.94a13.3,13.3,0,0,0-13.3-13.3H924.08a13.31,13.31,0,0,1-13.31-13.3V184.58a13.36,13.36,0,0,1,2.36-7.56L1026,13.6A13.28,13.28,0,0,1,1037,7.86h65.33a13.3,13.3,0,0,1,11.08,20.66l-78.47,118a13.3,13.3,0,1,0,24.38,7.37V137.55a13.3,13.3,0,0,1,13.31-13.3h62.49a13.29,13.29,0,0,1,13.3,13.3v16.34a13.31,13.31,0,0,0,13.31,13.3h10.71a13.31,13.31,0,0,1,13.31,13.3v46.85A13.31,13.31,0,0,1,1172.39,240.64Z" style="fill:#f0f0f0;fill-rule:evenodd" />
            <path d="M586,239.21H575.26A13.3,13.3,0,0,0,562,252.51v21.55a13.3,13.3,0,0,1-13.3,13.31h-65.3A13.31,13.31,0,0,1,470,274.06V252.51a13.29,13.29,0,0,0-13.3-13.3H337.66a13.31,13.31,0,0,1-13.31-13.31V183.15a13.34,13.34,0,0,1,2.36-7.56L439.59,12.16a13.31,13.31,0,0,1,11-5.74h65.32a13.3,13.3,0,0,1,11.08,20.67l-78.47,118a13.3,13.3,0,1,0,24.38,7.36V136.12a13.31,13.31,0,0,1,13.31-13.31h62.49A13.3,13.3,0,0,1,562,136.12v16.33a13.31,13.31,0,0,0,13.31,13.31H586a13.3,13.3,0,0,1,13.3,13.3V225.9A13.31,13.31,0,0,1,586,239.21Z" style="fill:#c2c2fa;fill-rule:evenodd" />
            <path d="M673.73,276.33q-28.71-17.46-45-50.57t-16.25-78.87q0-45.75,16.25-78.86t45-50.57Q702.41,0,739.75,0t66,17.46q28.69,17.46,45,50.57T867,146.89q0,45.77-16.26,78.87t-45,50.57q-28.69,17.46-66,17.46t-66-17.46Zm98.13-129.44h0q0-71-32.11-71t-32.11,71q0,71,32.11,71T771.86,146.89Z" style="fill:#c2c2fa;fill-rule:evenodd" />
            <path d="M1149.47,239.21h-10.72a13.3,13.3,0,0,0-13.31,13.3v21.55a13.3,13.3,0,0,1-13.3,13.31h-65.3a13.31,13.31,0,0,1-13.31-13.31V252.51a13.29,13.29,0,0,0-13.3-13.3H901.15a13.31,13.31,0,0,1-13.31-13.31V183.15a13.34,13.34,0,0,1,2.36-7.56L1003.08,12.17A13.28,13.28,0,0,1,1014,6.42h65.33a13.3,13.3,0,0,1,11.08,20.67l-78.47,118a13.3,13.3,0,1,0,24.38,7.36V136.12a13.31,13.31,0,0,1,13.31-13.31h62.49a13.3,13.3,0,0,1,13.3,13.31v16.33a13.31,13.31,0,0,0,13.31,13.31h10.72a13.3,13.3,0,0,1,13.3,13.3V225.9A13.31,13.31,0,0,1,1149.47,239.21Z" style="fill:#c2c2fa;fill-rule:evenodd" />
            <path d="M123.41,460.14c41.15,0,75.19-13.21,103.19-39.84,33.49-31.87,52.87-77.16,71.62-121,21.19-49.51,41.2-96.28,77.75-108,16.1-5.15,30.75-3.42,44.78,5.31,61.67,38.38,85,191.16,85.27,192.7l20.84-3.1c-1-6.67-25.13-164-95-207.49-19.32-12-40.29-14.54-62.34-7.48C323.83,185.92,302,237,278.85,291c-36,84-73.11,170.88-202.49,142.49L13.78,413.28a10.53,10.53,0,1,0-6.48,20l64,20.67A241.94,241.94,0,0,0,123.41,460.14Z" style="fill:#442f86;fill-rule:evenodd" />
            <path d="M479.45,564.19,457,455.48a74.86,74.86,0,0,1,145.75-34L630.3,526.9Z" style="fill-rule:evenodd;fill:url(#GradientFill_1)" />
            <path d="M479.5,567.07c2.41,10,38.56,9.88,80.74-.29s74.43-26.5,72-36.51-38.56-9.87-80.74.29S477.09,557.07,479.5,567.07Z" style="fill:#9186dd;fill-rule:evenodd" />
            <path d="M570.58,537.58c-.6,3.37,5.43,7.28,13.48,8.73s15.07-.12,15.67-3.5-5.42-7.28-13.47-8.73S571.19,534.2,570.58,537.58Z" style="fill:#442f86;fill-rule:evenodd" />
            <path d="M517.42,553.88c-.6,3.37,5.43,7.28,13.48,8.73s15.07-.12,15.67-3.5-5.42-7.28-13.47-8.73S518,550.5,517.42,553.88Z" style="fill:#442f86;fill-rule:evenodd" />
            <path d="M547,381.76s32.52,11.83,42.87,45.83,19.22,77.62,19.22,77.62l-29.57.74Z" style="fill:#bbd1f5;fill-rule:evenodd" />
            <polygon points="518.36 343.23 502.65 370.67 523.35 365.87 518.36 343.23" style="fill:#442f86;fill-rule:evenodd" />
            <path d="M1467.57,314.52l-8.38,18.62c-1.46-.65-36-16.7-67.8-73.22-9.18-16.34-23.26-35.45-38.2-33.69-10.72,1.27-39.13,16.49-71.45,130.22-35.23,124-110.6,205.07-224,240.86-73.39,23.17-164.16-26.28-168-28.4L899.62,551c1.14.63,87.09,47.28,152,26.8,106.45-33.6,177.28-110,210.52-227,26.6-93.61,55.61-141,88.7-144.92,21-2.48,40.61,12.32,58.39,44,28.5,50.72,58.08,64.46,58.38,64.6ZM899.62,551h0L894.68,560l4.94-8.94Z" style="fill:#442f86;fill-rule:evenodd" />
            <path d="M710.12,476.74l53.79,39A10.05,10.05,0,0,1,752.11,532l-53.79-39a10.05,10.05,0,0,1,11.8-16.28Z" style="fill:#442f86;fill-rule:evenodd" />
            <path d="M751.61,417l53.8,39a10.05,10.05,0,1,1-11.8,16.28l-53.79-39A10.05,10.05,0,1,1,751.61,417Z" style="fill:#442f86;fill-rule:evenodd" />
            <polygon points="939.83 572.14 906.44 577.12 915.68 558.5 947.25 570.94 939.83 572.14" style="fill:#442f86;fill-rule:evenodd" />
            <path d="M714.21,532.51,807.27,593a74.86,74.86,0,0,0,84.8-123.33l-88.16-64.05Z" style="fill-rule:evenodd;fill:url(#GradientFill_1-2)" />
            <path d="M745.41,537l21.43-29,109.91,79.18s-26.34,13.12-56.67-1.62S745.41,537,745.41,537Z" style="fill:#bbd1f5;fill-rule:evenodd" />
            <path d="M386.29,722.58c13.24,0,19.67-6.63,19.67-14.36,0-17-27-11.12-27-19.67,0-2.93,2.45-5.31,8.81-5.31a26.19,26.19,0,0,1,12.85,3.64l3.31-8.14c-4.31-2.72-10.27-4.11-16.09-4.11-13.18,0-19.54,6.56-19.54,14.45,0,17.22,27,11.26,27,19.93,0,2.84-2.58,5-8.94,5a27.29,27.29,0,0,1-15.29-4.83l-3.65,8.07C371.52,720.39,378.94,722.58,386.29,722.58Z" style="fill:#442f86;fill-rule:evenodd" />
            <path d="M429.53,722.31c11.33,0,19.54-7.61,19.54-18.34s-8.21-18.35-19.54-18.35-19.6,7.62-19.6,18.35,8.28,18.34,19.6,18.34Zm0-8.48c-5.16,0-9.14-3.7-9.14-9.86s4-9.87,9.14-9.87,9.07,3.71,9.07,9.87S434.7,713.83,429.53,713.83Z" style="fill:#442f86;fill-rule:evenodd" />
            <path d="M465.82,690.85v-4.7H456v35.63h10.33V705c0-6.82,3.77-9.93,9.47-9.93.79,0,1.45.06,2.31.13v-9.54C472.58,685.62,468.34,687.41,465.82,690.85Z" style="fill:#442f86;fill-rule:evenodd" />
            <path d="M494.1,690.85v-4.7h-9.87v35.63h10.33V705c0-6.82,3.78-9.93,9.47-9.93.8,0,1.46.06,2.32.13v-9.54C500.86,685.62,496.62,687.41,494.1,690.85Z" style="fill:#442f86;fill-rule:evenodd" />
            <path d="M539.2,686.15l-10.07,24.17-10-24.17H508.47l15.43,35.9-.13.33c-1.39,3.18-3,4.43-5.83,4.43a9.17,9.17,0,0,1-5.83-2.25l-3.77,7.35c2.32,2.06,6.29,3.25,9.93,3.25,6.43,0,11.33-2.58,14.77-11.19l16.09-37.82Z" style="fill:#442f86;fill-rule:evenodd" />
            <path d="M555.23,709.46a6.14,6.14,0,0,0-6.43,6.36,5.74,5.74,0,0,0,3.58,5.63L549.46,732H556l3.77-9.54c1.53-3.64,1.79-4.9,1.79-6.62A6.09,6.09,0,0,0,555.23,709.46Z" style="fill:#442f86;fill-rule:evenodd" />
            <path d="M608.14,675.42H588.07v46.36H598.8V709h9.34c12.38,0,20.13-6.42,20.13-16.75s-7.75-16.83-20.13-16.83Zm-.6,24.84H598.8V684.17h8.74c6.56,0,9.87,3,9.87,8.08S614.1,700.26,607.54,700.26Z" style="fill:#442f86;fill-rule:evenodd" />
            <path d="M649.2,685.62c-5.7,0-11.46,1.53-15.37,4.31l3.71,7.22a17.11,17.11,0,0,1,10.27-3.32c5.56,0,8.21,2.59,8.21,7h-8.21c-10.86,0-15.3,4.38-15.3,10.67s5,10.79,13.31,10.79c5.23,0,8.94-1.72,10.86-5v4.44h9.67V701.45c0-10.79-6.29-15.83-17.15-15.83Zm-.8,29.74c-3.64,0-5.83-1.73-5.83-4.31,0-2.38,1.53-4.17,6.36-4.17H656v3.64C654.83,713.77,651.85,715.36,648.4,715.36Z" style="fill:#442f86;fill-rule:evenodd" />
            <path d="M703,686.15v4.57c-2.72-3.44-6.82-5.1-11.79-5.1-9.87,0-17.81,6.82-17.81,17.22s7.94,17.22,17.81,17.22c4.64,0,8.54-1.46,11.26-4.44v1.53c0,6.42-3.18,9.73-10.46,9.73a21.33,21.33,0,0,1-12.59-4l-4.1,7.42c4.17,3.24,10.73,4.9,17.48,4.9,12.85,0,20-6.09,20-19.34V686.15Zm-9.74,25.43c-5.43,0-9.4-3.51-9.4-8.74s4-8.74,9.4-8.74,9.34,3.51,9.34,8.74S698.73,711.58,693.3,711.58Z" style="fill:#442f86;fill-rule:evenodd" />
            <path d="M757.34,704.1c0-11.46-8.08-18.48-18.54-18.48-10.86,0-19,7.68-19,18.35s8,18.34,20.33,18.34c6.43,0,11.4-2,14.71-5.76l-5.5-6a12.07,12.07,0,0,1-8.94,3.44c-5.43,0-9.21-2.71-10.2-7.15h26.95c.07-.86.2-2,.2-2.78Zm-18.47-10.66a8.47,8.47,0,0,1,8.74,7.41H730.06A8.43,8.43,0,0,1,738.87,693.44Z" style="fill:#442f86;fill-rule:evenodd" />
            <polygon points="815.62 675.42 815.62 703.57 792.57 675.42 783.7 675.42 783.7 721.78 794.3 721.78 794.3 693.63 817.41 721.78 826.22 721.78 826.22 675.42 815.62 675.42" style="fill:#442f86;fill-rule:evenodd" />
            <path d="M853.43,722.31c11.33,0,19.54-7.61,19.54-18.34s-8.21-18.35-19.54-18.35-19.6,7.62-19.6,18.35,8.28,18.34,19.6,18.34Zm0-8.48c-5.16,0-9.13-3.7-9.13-9.86s4-9.87,9.13-9.87,9.08,3.71,9.08,9.87S858.6,713.83,853.43,713.83Z" style="fill:#442f86;fill-rule:evenodd" />
            <path d="M900.06,712.77a7,7,0,0,1-4.18,1.33c-2.78,0-4.43-1.66-4.43-4.7V694.89h8.87V687h-8.87v-8.68H881.12V687h-5.5v7.94h5.5v14.64c0,8.48,4.9,12.78,13.31,12.78a14.79,14.79,0,0,0,8.41-2.25Z" style="fill:#442f86;fill-rule:evenodd" />
            <polygon points="963.17 684.03 963.17 675.42 928.14 675.42 928.14 721.78 938.86 721.78 938.86 704.89 960.32 704.89 960.32 696.28 938.86 696.28 938.86 684.03 963.17 684.03" style="fill:#442f86;fill-rule:evenodd" />
            <path d="M985.75,722.31c11.33,0,19.54-7.61,19.54-18.34s-8.21-18.35-19.54-18.35-19.6,7.62-19.6,18.35,8.28,18.34,19.6,18.34Zm0-8.48c-5.16,0-9.14-3.7-9.14-9.86s4-9.87,9.14-9.87,9.07,3.71,9.07,9.87S990.92,713.83,985.75,713.83Z" style="fill:#442f86;fill-rule:evenodd" />
            <path d="M1037.74,686.15v17.62c0,6.55-3.45,9.6-8.21,9.6-4.57,0-7.22-2.65-7.22-8.61V686.15H1012v20.13c0,11,6.29,16,15.23,16a14.4,14.4,0,0,0,11.06-4.77v4.24h9.8V686.15Z" style="fill:#442f86;fill-rule:evenodd" />
            <path d="M1079.33,685.62c-4.84,0-9,1.66-11.79,4.7v-4.17h-9.87v35.63H1068V704.16c0-6.55,3.58-9.6,8.54-9.6,4.57,0,7.22,2.65,7.22,8.41v18.81h10.33v-20.4C1094.09,690.52,1087.74,685.62,1079.33,685.62Z" style="fill:#442f86;fill-rule:evenodd" />
            <path d="M1129.79,672.64v17.29c-2.58-2.92-6.29-4.31-10.66-4.31-10.07,0-17.82,7.15-17.82,18.35s7.75,18.34,17.82,18.34c4.77,0,8.54-1.52,11.12-4.63v4.1h9.87V672.64Zm-8.87,41.19c-5.17,0-9.14-3.7-9.14-9.86s4-9.87,9.14-9.87,9.07,3.71,9.07,9.87S1126,713.83,1120.92,713.83Z" style="fill:#442f86;fill-rule:evenodd" />
        </g>
    </g>
</svg>